HIERARCHY
ROOT Hips
{
	OFFSET 0.000000 0.000000 0.000000 
	CHANNELS 6 Xposition Yposition Zposition Zrotation Xrotation Yrotation
	JOINT Spine
	{
		OFFSET -0.000000 8.285670 0.000000 
		CHANNELS 3 Zrotation Xrotation Yrotation
		JOINT Spine1
		{
			OFFSET 0.000083 20.116924 -0.000203 
			CHANNELS 3 Zrotation Xrotation Yrotation
			JOINT Neck
			{
				OFFSET -0.000000 22.301800 0.000000 
				CHANNELS 3 Zrotation Xrotation Yrotation
				JOINT Head
				{
					OFFSET -0.000000 15.661900 2.020890 
					CHANNELS 3 Zrotation Xrotation Yrotation
					End Site
					{
						OFFSET -0.000000 20.208887 0.000000 
					}
				}
			}
			JOINT LeftShoulder
			{
				OFFSET 3.887530 15.503099 -0.416373 
				CHANNELS 3 Zrotation Xrotation Yrotation
				JOINT LeftArm
				{
					OFFSET 20.767099 0.000000 0.000000 
					CHANNELS 3 Zrotation Xrotation Yrotation
					JOINT LeftForeArm
					{
						OFFSET 26.608500 0.000000 0.000000 
						CHANNELS 3 Zrotation Xrotation Yrotation
						JOINT LeftHand
						{
							OFFSET 23.393822 0.000119 0.000072 
							CHANNELS 3 Zrotation Xrotation Yrotation
							End Site
							{
								OFFSET 15.156667 0.000000 0.000000 
							}
						}
					}
				}
			}
			JOINT RightShoulder
			{
				OFFSET -4.190880 15.503099 -0.416373 
				CHANNELS 3 Zrotation Xrotation Yrotation
				JOINT RightArm
				{
					OFFSET -20.767099 0.000000 0.000000 
					CHANNELS 3 Zrotation Xrotation Yrotation
					JOINT RightForeArm
					{
						OFFSET -26.608500 0.000000 0.000000 
						CHANNELS 3 Zrotation Xrotation Yrotation
						JOINT RightHand
						{
							OFFSET -25.444746 -0.025034 0.462592 
							CHANNELS 3 Zrotation Xrotation Yrotation
							End Site
							{
								OFFSET -15.156667 0.000000 0.000000 
							}
						}
					}
				}
			}
		}
	}
	JOINT LeftUpLeg
	{
		OFFSET 10.104500 0.000000 0.000000 
		CHANNELS 3 Zrotation Xrotation Yrotation
		JOINT LeftLeg
		{
			OFFSET -0.000000 -50.743301 0.000000 
			CHANNELS 3 Zrotation Xrotation Yrotation
			JOINT LeftFoot
			{
				OFFSET -0.000000 -35.579197 0.000000 
				CHANNELS 3 Zrotation Xrotation Yrotation
				JOINT LeftToeBase
				{
					OFFSET -0.000000 -6.567910 15.156700 
					CHANNELS 3 Zrotation Xrotation Yrotation
					End Site
					{
						OFFSET -0.000000 0.000000 4.041778 
					}
				}
			}
		}
	}
	JOINT RightUpLeg
	{
		OFFSET -10.104500 0.000000 0.000000 
		CHANNELS 3 Zrotation Xrotation Yrotation
		JOINT RightLeg
		{
			OFFSET -0.000000 -50.743301 0.000000 
			CHANNELS 3 Zrotation Xrotation Yrotation
			JOINT RightFoot
			{
				OFFSET -0.000000 -35.579197 0.000000 
				CHANNELS 3 Zrotation Xrotation Yrotation
				JOINT RightToeBase
				{
					OFFSET -0.000000 -6.567910 15.156700 
					CHANNELS 3 Zrotation Xrotation Yrotation
					End Site
					{
						OFFSET -0.000000 0.000000 4.041778 
					}
				}
			}
		}
	}
}
MOTION
Frames: 18
Frame Time: 0.010000
0.000000 89.877159 0.000000 -0.773127 3.641496 9.043871 -1.921535 -7.736590 -2.650723 3.868786 8.741309 -1.135970 1.786539 -7.882975 -9.867409 -4.829442 7.099138 0.155657 -4.985658 4.684609 0.990475 -74.340782 26.315992 -15.825763 7.018630 0.865725 -11.526120 -27.625504 -0.780588 9.562825 -8.594161 0.109644 0.988038 78.203743 -23.173683 -7.951514 19.831591 13.236931 28.400728 6.156807 6.905637 -18.614388 6.905337 -9.364175 -6.229424 0.179249 24.148806 -22.988564 2.138550 -33.500580 27.580748 0.000000 0.000000 0.000000 -3.671995 -2.817048 -11.304253 8.257196 12.797177 -2.543928 -10.698899 -25.426241 -6.323294 0.000000 0.000000 0.000000 
0.001204 89.877098 0.002061 -0.772200 3.643203 9.041915 -1.924362 -7.740855 -2.652004 3.876891 8.749055 -1.137212 1.598931 -7.957356 -10.415948 -4.717448 7.236181 0.731555 -4.993843 4.681989 0.995186 -74.337029 26.325960 -15.826841 7.035182 0.876751 -11.495132 -27.674416 -0.767451 9.535858 -8.601494 0.107072 0.984895 78.212685 -23.178886 -7.953939 19.824049 13.238018 28.405510 6.155458 6.908382 -18.609667 6.903814 -9.363445 -6.231624 0.177336 24.147835 -22.983528 2.138872 -33.501343 27.581064 0.000000 0.000000 0.000000 -3.673974 -2.816896 -11.303931 8.257756 12.796150 -2.542622 -10.697999 -25.426992 -6.323089 0.000000 0.000000 0.000000 
0.002415 89.877045 0.004114 -0.771223 3.644923 9.039701 -1.924940 -7.744429 -2.653215 3.887121 8.756149 -1.138664 1.422323 -8.026724 -10.527219 -4.486508 7.396952 0.841844 -5.007623 4.679306 0.998391 -74.328011 26.339964 -15.825638 7.051513 0.884030 -11.467842 -27.724092 -0.757624 9.507828 -8.617801 0.103538 0.981256 78.230217 -23.188105 -7.957441 19.812384 13.240731 28.410105 6.154983 6.913784 -18.604576 6.902281 -9.362742 -6.233926 0.175349 24.146849 -22.978436 2.139155 -33.502140 27.581448 0.000000 0.000000 0.000000 -3.675981 -2.816797 -11.303611 8.258296 12.795173 -2.541297 -10.697074 -25.427692 -6.322889 0.000000 0.000000 0.000000 
0.003624 89.876999 0.006190 -0.770258 3.646638 9.037498 -1.925226 -7.748137 -2.654537 3.897761 8.763384 -1.140115 1.258056 -8.091621 -10.531167 -4.240180 7.554017 0.837517 -5.022207 4.676748 1.001320 -74.318306 26.354433 -15.824142 7.067804 0.890631 -11.441446 -27.773418 -0.748448 9.479797 -8.635700 0.099925 0.977666 78.249229 -23.197990 -7.961102 19.800072 13.243652 28.414713 6.154762 6.919584 -18.599432 6.900728 -9.362006 -6.236223 0.173405 24.145844 -22.973328 2.139457 -33.502865 27.581825 0.000000 0.000000 0.000000 -3.677890 -2.816665 -11.303465 8.258562 12.794181 -2.540340 -10.695827 -25.428564 -6.322026 0.000000 0.000000 0.000000 
0.004832 89.876953 0.008235 -0.769329 3.648404 9.035496 -1.925590 -7.751941 -2.655773 3.908140 8.770534 -1.141592 1.105820 -8.152347 -10.510782 -4.005029 7.701486 0.807575 -5.036426 4.674299 1.004274 -74.308861 26.368563 -15.822755 7.083876 0.897220 -11.415245 -27.821943 -0.739258 9.452145 -8.652753 0.096445 0.974189 78.267349 -23.207590 -7.964869 19.788151 13.246468 28.419571 6.154512 6.925122 -18.594643 6.899239 -9.361365 -6.238730 0.171270 24.144867 -22.968048 2.139787 -33.503532 27.582226 0.000000 0.000000 0.000000 -3.679916 -2.816597 -11.303097 8.259216 12.793186 -2.538957 -10.695003 -25.429197 -6.321995 0.000000 0.000000 0.000000 
0.006038 89.876900 0.010265 -0.768381 3.650216 9.033421 -1.926157 -7.755823 -2.657020 3.918201 8.777638 -1.142998 0.965078 -8.209137 -10.480371 -3.784338 7.838785 0.767224 -5.050056 4.671911 1.007262 -74.299980 26.382168 -15.821527 7.099772 0.903904 -11.389067 -27.869398 -0.729976 9.424889 -8.668845 0.093121 0.970839 78.284653 -23.216824 -7.968564 19.776518 13.249111 28.424425 6.154465 6.930354 -18.590014 6.897679 -9.360744 -6.241153 0.169286 24.143835 -22.962767 2.139990 -33.504299 27.582502 0.000000 0.000000 0.000000 -3.681929 -2.816545 -11.302779 8.259813 12.792077 -2.537481 -10.694202 -25.429829 -6.321991 0.000000 0.000000 0.000000 
0.007246 89.876854 0.012303 -0.767442 3.651926 9.031433 -1.926971 -7.759626 -2.658275 3.928044 8.784678 -1.144413 0.835105 -8.262215 -10.451925 -3.580777 7.965919 0.729456 -5.062990 4.669652 1.010262 -74.291763 26.395208 -15.820574 7.115479 0.910633 -11.362941 -27.915693 -0.720646 9.398077 -8.683954 0.090020 0.967725 78.300926 -23.225542 -7.972062 19.765463 13.251437 28.429083 6.154272 6.935173 -18.585400 6.896153 -9.360009 -6.243837 0.167188 24.142775 -22.957293 2.140301 -33.505005 27.582829 0.000000 0.000000 0.000000 -3.683874 -2.816402 -11.302591 8.260242 12.791004 -2.536295 -10.693116 -25.430485 -6.321516 0.000000 0.000000 0.000000 
0.008449 89.876816 0.014303 -0.766509 3.653685 9.029430 -1.928035 -7.763448 -2.659544 3.937637 8.791574 -1.145786 0.715191 -8.311774 -10.425656 -3.393390 8.083440 0.694555 -5.075269 4.667471 1.013386 -74.284195 26.407740 -15.819854 7.130946 0.917406 -11.337056 -27.960646 -0.711333 9.371840 -8.698119 0.087086 0.964762 78.316277 -23.233892 -7.975539 19.754869 13.253638 28.433771 6.154289 6.939670 -18.581108 6.894604 -9.359336 -6.246597 0.165117 24.141611 -22.951530 2.140287 -33.505730 27.582853 0.000000 0.000000 0.000000 -3.685840 -2.816355 -11.302330 8.260739 12.790037 -2.535066 -10.692176 -25.431236 -6.321218 0.000000 0.000000 0.000000 
0.009662 89.876762 0.016302 -0.765541 3.655393 9.027364 -1.929267 -7.767182 -2.660735 3.946844 8.798336 -1.147181 0.604663 -8.358027 -10.399225 -3.220673 8.192208 0.660121 -5.086857 4.665463 1.016494 -74.277184 26.419695 -15.819394 7.146126 0.924080 -11.311601 -28.004276 -0.702105 9.346364 -8.711145 0.084334 0.961951 78.330505 -23.241755 -7.978944 19.744774 13.255599 28.438488 6.154334 6.943767 -18.577063 6.893019 -9.358581 -6.249525 0.162984 24.140438 -22.945581 2.140482 -33.506386 27.582895 0.000000 0.000000 0.000000 -3.687892 -2.816235 -11.301985 8.261396 12.789007 -2.533702 -10.691422 -25.431837 -6.321219 0.000000 0.000000 0.000000 
0.010869 89.876717 0.018279 -0.764607 3.657160 9.025300 -1.930668 -7.770998 -2.662019 3.955774 8.805055 -1.148450 0.502882 -8.401172 -10.375274 -3.061883 8.292467 0.628718 -5.097898 4.663483 1.019637 -74.270760 26.431198 -15.818981 7.161023 0.930632 -11.286738 -28.046301 -0.693087 9.321607 -8.723320 0.081710 0.959245 78.343880 -23.249310 -7.982414 19.735237 13.257526 28.443348 6.154514 6.947575 -18.573538 6.891475 -9.357941 -6.252741 0.160669 24.139269 -22.939411 2.140667 -33.507019 27.583004 0.000000 0.000000 0.000000 -3.689860 -2.816169 -11.301759 8.261889 12.787981 -2.532513 -10.690475 -25.432577 -6.320891 0.000000 0.000000 0.000000 
0.012074 89.876686 0.020187 -0.763678 3.659103 9.023362 -1.932280 -7.775146 -2.663260 3.964471 8.811807 -1.149764 0.409216 -8.441387 -10.354300 -2.916430 8.384948 0.601024 -5.108296 4.661633 1.022867 -74.264915 26.442225 -15.818758 7.175516 0.937018 -11.262508 -28.086679 -0.684259 9.297659 -8.734694 0.079266 0.956726 78.356407 -23.256474 -7.985811 19.726162 13.259263 28.448187 6.154799 6.951056 -18.570345 6.889874 -9.357472 -6.256113 0.158371 24.138012 -22.932936 2.140548 -33.507614 27.582899 0.000000 0.000000 0.000000 -3.691839 -2.816370 -11.301600 8.262302 12.787025 -2.531422 -10.689379 -25.433224 -6.320395 0.000000 0.000000 0.000000 
0.013284 89.876648 0.022125 -0.762738 3.660858 9.021482 -1.934039 -7.778992 -2.664528 3.972937 8.818410 -1.151015 0.323070 -8.478844 -10.333164 -2.782920 8.470183 0.573816 -5.118347 4.659768 1.026061 -74.259384 26.452847 -15.818674 7.189624 0.943109 -11.238916 -28.125341 -0.675754 9.274553 -8.745203 0.076914 0.954252 78.368042 -23.263247 -7.989113 19.717466 13.260816 28.453007 6.155415 6.954211 -18.567589 6.888299 -9.356768 -6.259761 0.155964 24.136639 -22.926136 2.140558 -33.508171 27.582695 0.000000 0.000000 0.000000 -3.693816 -2.816355 -11.301426 8.262761 12.786046 -2.530312 -10.688378 -25.433935 -6.319983 0.000000 0.000000 0.000000 
0.014496 89.876617 0.024033 -0.761791 3.662678 9.019587 -1.935875 -7.782911 -2.665747 3.981010 8.824949 -1.152238 0.243908 -8.513743 -10.315960 -2.660678 8.548706 0.551140 -5.127780 4.658027 1.029150 -74.254395 26.462900 -15.818638 7.203293 0.948945 -11.216223 -28.162144 -0.667597 9.252320 -8.754842 0.074714 0.951919 78.378914 -23.269688 -7.992387 19.709194 13.262241 28.457777 6.156159 6.957081 -18.565174 6.886716 -9.356153 -6.263738 0.153376 24.135258 -22.918974 2.140404 -33.508728 27.582458 0.000000 0.000000 0.000000 -3.695820 -2.816379 -11.301261 8.263249 12.785022 -2.529173 -10.687444 -25.434570 -6.319627 0.000000 0.000000 0.000000 
0.015702 89.876595 0.025872 -0.760876 3.664551 9.017827 -1.937853 -7.786871 -2.667057 3.988900 8.831376 -1.153399 0.171175 -8.546237 -10.298599 -2.548860 8.621096 0.529010 -5.136774 4.656354 1.032315 -74.249832 26.472673 -15.818814 7.216596 0.954394 -11.194356 -28.197086 -0.659912 9.231084 -8.763814 0.072714 0.949818 78.389107 -23.275776 -7.995553 19.701277 13.263482 28.462578 6.157113 6.959590 -18.563183 6.885090 -9.355602 -6.267869 0.150908 24.133736 -22.911520 2.140196 -33.509155 27.581957 0.000000 0.000000 0.000000 -3.697840 -2.816521 -11.300993 8.263867 12.784028 -2.527954 -10.686663 -25.435139 -6.319557 0.000000 0.000000 0.000000 
0.016907 89.876572 0.027680 -0.759984 3.666503 9.016028 -1.939971 -7.790878 -2.668317 3.996635 8.837718 -1.154591 0.104389 -8.576494 -10.281088 -2.446299 8.687845 0.507260 -5.145424 4.654741 1.035437 -74.245667 26.482000 -15.819025 7.229377 0.959424 -11.173522 -28.230015 -0.652634 9.210858 -8.772259 0.070790 0.947775 78.398705 -23.281622 -7.998684 19.693790 13.264674 28.467188 6.158387 6.961903 -18.561661 6.883471 -9.355113 -6.272359 0.148193 24.132151 -22.903595 2.139973 -33.509560 27.581442 0.000000 0.000000 0.000000 -3.699792 -2.816777 -11.300901 8.264252 12.783092 -2.527058 -10.685545 -25.435795 -6.318936 0.000000 0.000000 0.000000 
0.018123 89.876549 0.029465 -0.759033 3.668441 9.014366 -1.942127 -7.794744 -2.669520 4.003966 8.843858 -1.155737 0.043121 -8.604643 -10.273316 -2.353541 8.748814 0.495819 -5.153480 4.653222 1.038476 -74.241920 26.490894 -15.819242 7.241604 0.964045 -11.153912 -28.260897 -0.645882 9.191709 -8.779961 0.068933 0.945756 78.407608 -23.287197 -8.001858 19.686680 13.265812 28.471886 6.159911 6.963988 -18.560694 6.881799 -9.354633 -6.277166 0.145421 24.130539 -22.895336 2.139600 -33.509995 27.580782 0.000000 0.000000 0.000000 -3.701864 -2.817020 -11.300775 8.264803 12.782161 -2.525799 -10.684775 -25.436392 -6.318808 0.000000 0.000000 0.000000 
0.019338 89.876526 0.031227 -0.758093 3.670246 9.012584 -1.944346 -7.798581 -2.670776 4.011066 8.850094 -1.156838 -0.013121 -8.630834 -10.251417 -2.266958 8.805464 0.470739 -5.161151 4.651567 1.041468 -74.238663 26.499598 -15.819430 7.253480 0.968101 -11.135367 -28.289795 -0.639715 9.173658 -8.787121 0.067213 0.943886 78.415955 -23.292490 -8.004936 19.679935 13.266836 28.476515 6.161739 6.965783 -18.560162 6.880114 -9.353984 -6.282338 0.142537 24.128744 -22.886566 2.139214 -33.510315 27.579947 0.000000 0.000000 0.000000 -3.703920 -2.817129 -11.300636 8.265404 12.781176 -2.524669 -10.683971 -25.436975 -6.318638 0.000000 0.000000 0.000000 
0.020540 89.876518 0.032898 -0.757236 3.672323 9.010880 -1.946580 -7.802523 -2.671976 4.017989 8.856046 -1.157933 -0.064665 -8.655215 -10.243377 -2.189240 8.857156 0.459913 -5.168608 4.650149 1.044327 -74.235550 26.507898 -15.819665 7.264838 0.971585 -11.118169 -28.316559 -0.634189 9.156731 -8.793780 0.065572 0.942085 78.423729 -23.297592 -8.008085 19.673580 13.267830 28.481091 6.163811 6.967372 -18.560179 6.878486 -9.353649 -6.287795 0.139515 24.126928 -22.877457 2.138730 -33.510567 27.579050 0.000000 0.000000 0.000000 -3.705868 -2.817628 -11.300567 8.265779 12.780326 -2.523854 -10.682850 -25.437529 -6.318046 0.000000 0.000000 0.000000 
